<svg xmlns="http://www.w3.org/2000/svg" viewBox="0 0 48 48" width="512" height="512">
  <defs>
    <linearGradient id="cpLogoGradient" x1="6" y1="6" x2="44" y2="44" gradientUnits="userSpaceOnUse">
      <stop offset="0%" stop-color="#0284C7" />
      <stop offset="60%" stop-color="#2563EB" />
      <stop offset="100%" stop-color="#F97316" />
    </linearGradient>
  </defs>
  <!-- Full-bleed background so safe-area / maskable cropping keeps the tile clean -->
  <rect width="48" height="48" rx="10" fill="white" />
  <!-- CartPOS mark, matching the in-app Logo. Scaled to ~86% so maskable crop never clips it. -->
  <g transform="translate(24 24) scale(0.86) translate(-24 -24)">
    <g stroke="url(#cpLogoGradient)" stroke-width="2.4" stroke-linecap="round" stroke-linejoin="round" fill="none">
      <path d="M9 13h6.2l4 17.2c.3 1.2 1.4 2.1 2.6 2.1H35a2.8 2.8 0 0 0 2.7-2.2l2.5-11.6a1.6 1.6 0 0 0-1.6-1.9H18" />
      <path d="M24 32h-5.5" />
      <circle cx="21" cy="37" r="3" />
      <circle cx="33" cy="37" r="3" />
      <path d="M31 8l6-2.5 2.5 6L34 14l-3-6z" />
      <path d="M9 24l4-1.6 1.6 4L10.6 28 9 24z" />
    </g>
    <text x="24" y="24" text-anchor="middle" dominant-baseline="middle" font-size="9" font-weight="700" font-family="'Inter','Segoe UI',sans-serif" fill="url(#cpLogoGradient)">CP</text>
  </g>
</svg>
