<svg xmlns="http://www.w3.org/2000/svg" viewBox="0 0 192 192" width="192" height="192">
  <defs>
    <linearGradient id="logoGradient" x1="0" y1="0" x2="192" y2="192" gradientUnits="userSpaceOnUse">
      <stop offset="0%" stop-color="#0284C7" />
      <stop offset="60%" stop-color="#2563EB" />
      <stop offset="100%" stop-color="#F97316" />
    </linearGradient>
  </defs>
  <!-- White background -->
  <rect width="192" height="192" rx="24" fill="white" />
  <!-- Shopping cart icon - matching Logo component exactly, larger scale for favicon visibility -->
  <g transform="translate(48, 48) scale(2)" stroke="url(#logoGradient)" stroke-width="3.6" stroke-linecap="round" stroke-linejoin="round" fill="none">
    <!-- Cart body - matching Logo component path exactly -->
    <path d="M9 13h6.2l4 17.2c.3 1.2 1.4 2.1 2.6 2.1H35a2.8 2.8 0 0 0 2.7-2.2l2.5-11.6a1.6 1.6 0 0 0-1.6-1.9H18" />
    <!-- Cart handle -->
    <path d="M24 32h-5.5" />
    <!-- Wheels -->
    <circle cx="21" cy="37" r="4.5" fill="url(#logoGradient)" />
    <circle cx="33" cy="37" r="4.5" fill="url(#logoGradient)" />
    <!-- Decorative tags matching Logo component -->
    <path d="M31 8l6-2.5 2.5 6L34 14l-3-6z" fill="url(#logoGradient)" opacity="0.9" />
    <path d="M9 24l4-1.6 1.6 4L10.6 28 9 24z" fill="url(#logoGradient)" opacity="0.9" />
  </g>
</svg>
